inDegrees=yes
name=ik_lifting_orientations
DataType=double
version=3
OpenSimVersion=4.5-2024-01-10-34fd6af
endheader
time	pelvis_tilt	pelvis_list	pelvis_rotation	pelvis_tx	pelvis_ty	pelvis_tz	hip_flexion_r	hip_adduction_r	hip_rotation_r	knee_angle_r	knee_angle_r_beta	ankle_angle_r	subtalar_angle_r	mtp_angle_r	hip_flexion_l	hip_adduction_l	hip_rotation_l	knee_angle_l	knee_angle_l_beta	ankle_angle_l	subtalar_angle_l	mtp_angle_l	lumbar_extension	lumbar_bending	lumbar_rotation	arm_flex_r	arm_add_r	arm_rot_r	elbow_flex_r	pro_sup_r	wrist_flex_r	wrist_dev_r	arm_flex_l	arm_add_l	arm_rot_l	elbow_flex_l	pro_sup_l	wrist_flex_l	wrist_dev_l
1.68	-0.01265523179384243	0.921705592434481	-41.16995407623476	0	0.9399999998679526	0	45.51031670999684	-9.916638667948114	0	60.11343341925241	1.049177337844347	-4.962311208747724	0	0	45.51031670999684	-9.916638667948114	0	60.11343341925241	1.049177337844347	-4.962311208747724	0	0	26.29433238671212	11.8006377069336	-48.2669693942629	42.16477084178392	45.78643066520177	-48.06709419403123	80.00938556697115	-0.4301304194607621	0	0	0	-15.15180331434503	0	90.38541048411354	-0.4301304194607621	0	0
1.69	0.6621305467400693	1.640572082417612	-41.7147388262197	0	0.9399999998679526	0	45.51014699288962	-9.91673420725771	0	60.11340362824877	1.049176817893246	-4.962367342459842	0	0	45.51014699288962	-9.91673420725771	0	60.11340362824877	1.049176817893246	-4.962367342459842	0	0	26.10869613853304	11.47415608984613	-47.81478747400605	42.22407909064787	45.75455742017608	-47.58885064142437	79.70726717076428	-0.4300306153958533	0	-7.802511416006755e-37	0	-15.15177732818528	0	90.38532101717929	-0.4300306153958533	0	-7.802511416006755e-37
1.7	1.048045844349099	1.91139950952287	-40.73576804994584	0	0.9399999998679526	0	45.51009911924992	-9.916761038220363	0	60.11339517430221	1.049176670344044	-4.962383105243333	0	0	45.51009911924992	-9.916761038220363	0	60.11339517430221	1.049176670344044	-4.962383105243333	0	0	26.25239769380207	11.39934783401971	-48.73102050876489	42.52357373046024	45.26397409920784	-47.95467704688223	80.67795864122002	-0.4300024013540747	0	0	0	-15.1517699670678	0	90.38529572538478	-0.4300024013540747	0	0
1.71	0.5732178177108758	2.712509522362939	-40.54028680734072	0	0.9399999998679526	0	45.51005049047699	-9.916787990601209	0	60.11338650725488	1.049176519075532	-4.962398907622063	0	0	45.51005049047699	-9.916787990601209	0	60.11338650725488	1.049176519075532	-4.962398907622063	0	0	26.70772348222904	11.35965071060356	-48.72677802660345	42.86318574403234	45.49755321363684	-47.86600295004634	80.86758654367699	-0.4299736396676551	0	0	0	-15.15176244006864	0	90.38526994266623	-0.4299736396676551	0	0
1.72	1.270167350626268	3.419318981678549	-41.09730863759923	0	0.9399999998679526	0	45.50618869983935	-9.918241334351892	0	60.11252245643784	1.04916143854387	-4.963175017778922	0	0	45.50618869983935	-9.918241334351892	0	60.11252245643784	1.04916143854387	-4.963175017778922	0	0	26.1294274347068	10.84613242671026	-48.15677472087388	42.90205108485441	44.87596845856941	-47.12808707803707	80.7708661071816	-0.4274623204394814	0	0	0	-15.15105485279962	0	90.38301872848081	-0.4274623204394814	0	0
1.73	2.291120146283744	4.420038768466918	-40.69218488574922	0	0.9399999998679526	0	45.50614900648458	-9.918263520165995	0	60.11251548510342	1.049161316871131	-4.963188029331282	0	0	45.50614900648458	-9.918263520165995	0	60.11251548510342	1.049161316871131	-4.963188029331282	0	0	25.53622709478969	10.8368306888951	-48.7523284370065	42.51478560719963	44.17832425556154	-47.44498643026834	81.11545504944857	-0.4274389357209405	0	0	0	-15.15104875505445	0	90.3829977658158	-0.4274389357209405	0	0
1.74	1.858112586165872	5.224312188705543	-40.51321243510008	0	0.9399999998679526	0	45.50388893656473	-9.919119583853544	0	60.11201142862768	1.049152519426013	-4.963646517336179	0	0	45.50388893656473	-9.919119583853544	0	60.11201142862768	1.049152519426013	-4.963646517336179	0	0	25.5745859239616	10.53147019364948	-48.67951614381455	42.83091599740548	43.87124803083388	-47.10290659006901	81.44036658196067	-0.4259702204368276	0	1.077613842297402e-35	0	-15.15063509413327	0	90.38168116989343	-0.4259702204368276	0	1.077613842297402e-35
